<svg width="17" height="17" viewBox="0 0 17 17" fill="none" xmlns="http://www.w3.org/2000/svg">
<path d="M8.49988 10.3217L3.01131 1.53028C2.95563 1.43884 2.92512 1.33431 2.92286 1.22729C2.92061 1.12026 2.9467 1.01453 2.99848 0.920838C3.05026 0.827141 3.12589 0.748801 3.21771 0.693759C3.30953 0.638718 3.41427 0.608932 3.52131 0.607422H13.4785C13.5855 0.608932 13.6902 0.638718 13.7821 0.693759C13.8739 0.748801 13.9495 0.827141 14.0013 0.920838C14.0531 1.01453 14.0791 1.12026 14.0769 1.22729C14.0746 1.33431 14.0441 1.43884 13.9885 1.53028L8.49988 10.3217ZM8.49988 10.3217V16.3931M5.46417 16.3931H11.5356M4.32274 3.64314H12.677" stroke="black" stroke-width="1.21429" stroke-linecap="round" stroke-linejoin="round"/>
</svg>
