<svg width="25" height="25" viewBox="0 0 25 25" fill="none" xmlns="http://www.w3.org/2000/svg">
<path d="M1.04175 22.916C1.04175 23.4785 1.5105 23.9577 2.08341 23.9577H15.6251C16.2084 23.9577 16.6667 23.4785 16.6667 22.916V21.8743H1.04175V22.916ZM8.85425 9.37435C4.948 9.37435 1.04175 11.4577 1.04175 15.6243H16.6667C16.6667 11.4577 12.7605 9.37435 8.85425 9.37435ZM3.77091 13.541C4.92716 11.9264 7.3855 11.4577 8.85425 11.4577C10.323 11.4577 12.7813 11.9264 13.9376 13.541H3.77091ZM1.04175 17.7077H16.6667V19.791H1.04175V17.7077ZM18.7501 5.20768V1.04102H16.6667V5.20768H11.4584L11.698 7.29101H21.6563L20.198 21.8743H18.7501V23.9577H20.5417C21.4167 23.9577 22.1355 23.2806 22.2397 22.4264L23.9584 5.20768H18.7501Z" fill="black"/>
</svg>
