<svg width="25" height="25" viewBox="0 0 25 25" fill="none" xmlns="http://www.w3.org/2000/svg">
<path d="M22.6562 18.7495H19.5312V16.4058H21.875C21.9937 16.4058 22.1109 16.3787 22.2175 16.3266C22.3242 16.2746 22.4176 16.1989 22.4907 16.1053C22.5637 16.0117 22.6145 15.9027 22.6391 15.7866C22.6638 15.6705 22.6616 15.5502 22.6328 15.4351L19.5078 2.93507C19.4655 2.76615 19.3679 2.61621 19.2306 2.50907C19.0933 2.40194 18.9242 2.34375 18.75 2.34375C18.5758 2.34375 18.4067 2.40194 18.2694 2.50907C18.1321 2.61621 18.0345 2.76615 17.9922 2.93507L14.8672 15.4351C14.8384 15.5502 14.8362 15.6705 14.8609 15.7866C14.8855 15.9027 14.9363 16.0117 15.0093 16.1053C15.0824 16.1989 15.1758 16.2746 15.2825 16.3266C15.3891 16.3787 15.5063 16.4058 15.625 16.4058H17.9688V18.7495H11.7188V17.187H12.5C12.7072 17.187 12.9059 17.1047 13.0524 16.9582C13.1989 16.8117 13.2812 16.613 13.2812 16.4058C13.2812 16.1986 13.1989 15.9999 13.0524 15.8534C12.9059 15.7068 12.7072 15.6245 12.5 15.6245H11.7188V14.062H12.5C12.7072 14.062 12.9059 13.9797 13.0524 13.8332C13.1989 13.6867 13.2812 13.488 13.2812 13.2808C13.2812 13.0736 13.1989 12.8749 13.0524 12.7284C12.9059 12.5818 12.7072 12.4995 12.5 12.4995H3.90625C3.69905 12.4995 3.50034 12.5818 3.35382 12.7284C3.20731 12.8749 3.125 13.0736 3.125 13.2808C3.125 13.488 3.20731 13.6867 3.35382 13.8332C3.50034 13.9797 3.69905 14.062 3.90625 14.062H4.6875V15.6245H3.90625C3.69905 15.6245 3.50034 15.7068 3.35382 15.8534C3.20731 15.9999 3.125 16.1986 3.125 16.4058C3.125 16.613 3.20731 16.8117 3.35382 16.9582C3.50034 17.1047 3.69905 17.187 3.90625 17.187H4.6875V18.7495H2.34375C2.13655 18.7495 1.93784 18.8318 1.79132 18.9784C1.64481 19.1249 1.5625 19.3236 1.5625 19.5308C1.5625 19.738 1.64481 19.9367 1.79132 20.0832C1.93784 20.2297 2.13655 20.312 2.34375 20.312H22.6562C22.8635 20.312 23.0622 20.2297 23.2087 20.0832C23.3552 19.9367 23.4375 19.738 23.4375 19.5308C23.4375 19.3236 23.3552 19.1249 23.2087 18.9784C23.0622 18.8318 22.8635 18.7495 22.6562 18.7495ZM18.75 6.34718L20.874 14.8433H16.626L18.75 6.34718ZM6.25 14.062H10.1562V15.6245H6.25V14.062ZM6.25 17.187H10.1562V18.7495H6.25V17.187ZM11.3281 9.37453C11.8689 9.37453 12.3976 9.21416 12.8473 8.9137C13.2969 8.61325 13.6474 8.18619 13.8544 7.68655C14.0613 7.18691 14.1155 6.63712 14.01 6.1067C13.9045 5.57629 13.644 5.08907 13.2616 4.70666C12.8792 4.32425 12.392 4.06382 11.8616 3.95832C11.3312 3.85281 10.7814 3.90696 10.2817 4.11392C9.78208 4.32088 9.35503 4.67135 9.05457 5.12102C8.75412 5.57068 8.59375 6.09934 8.59375 6.64015C8.59375 7.36535 8.88184 8.06085 9.39463 8.57365C9.90742 9.08644 10.6029 9.37453 11.3281 9.37453ZM11.3281 5.46828C11.5599 5.46828 11.7865 5.53701 11.9792 5.66577C12.1719 5.79454 12.3221 5.97756 12.4108 6.1917C12.4995 6.40583 12.5227 6.64145 12.4775 6.86877C12.4323 7.0961 12.3207 7.3049 12.1568 7.46879C11.9929 7.63268 11.7841 7.74429 11.5567 7.78951C11.3294 7.83473 11.0938 7.81152 10.8797 7.72282C10.6655 7.63413 10.4825 7.48393 10.3537 7.29121C10.225 7.0985 10.1562 6.87193 10.1562 6.64015C10.1562 6.32935 10.2797 6.03128 10.4995 5.81151C10.7193 5.59174 11.0173 5.46828 11.3281 5.46828Z" fill="black"/>
</svg>
