<svg width="20" height="20" viewBox="0 0 20 20" fill="none" xmlns="http://www.w3.org/2000/svg">
<path d="M8.94576 1.55253C8.52979 1.70017 8.18857 2.00547 7.99576 2.40253C7.65935 2.38794 7.32597 2.4716 7.0363 2.64329C6.74663 2.81498 6.51321 3.06728 6.36451 3.3694C5.98145 3.50195 5.65707 3.76475 5.44794 4.11198C5.2388 4.4592 5.15818 4.86882 5.22014 5.2694C5.10264 5.3944 5.00326 5.5369 4.92639 5.69315C4.60945 5.80209 4.3309 6.00058 4.12446 6.26459C3.91802 6.5286 3.79256 6.8468 3.76326 7.18065C3.5248 7.39063 3.3431 7.65732 3.23495 7.95609C3.12681 8.25486 3.0957 8.57606 3.14451 8.89003L3.14514 8.8919L4.60139 18.1113C4.65872 18.4675 4.84105 18.7916 5.1157 19.0256C5.39034 19.2596 5.73934 19.3881 6.10014 19.3882H14.1626C14.9064 19.3882 15.5439 18.8475 15.6614 18.1113L17.1176 8.89503V8.89315C17.1575 8.64918 17.1488 8.39973 17.092 8.15915C17.0351 7.91856 16.9313 7.69159 16.7864 7.49128C16.8226 7.10472 16.7277 6.71721 16.5168 6.39123C16.3059 6.06525 15.9913 5.81978 15.6239 5.6944C15.5479 5.53874 15.4489 5.39546 15.3301 5.2694C15.3923 4.86805 15.3111 4.45765 15.1008 4.11021C14.8905 3.76276 14.5645 3.50049 14.1801 3.3694C14.0598 3.12362 13.8828 2.90991 13.6638 2.74584C13.4447 2.58178 13.1899 2.47204 12.9201 2.42565C12.8245 2.22467 12.6901 2.04453 12.5248 1.89556C12.3594 1.74659 12.1662 1.63172 11.9564 1.55753C11.8169 1.27781 11.6024 1.04242 11.3367 0.877724C11.0711 0.713027 10.7649 0.625521 10.4523 0.625002C10.1398 0.624483 9.83322 0.710972 9.56704 0.874785C9.30085 1.0386 9.08614 1.27327 8.94576 1.55253ZM15.2564 7.3319C14.9326 7.3319 14.637 7.45315 14.4126 7.65315C14.2593 7.36714 14.0313 7.12809 13.7528 6.96145C13.4744 6.79481 13.1559 6.70684 12.8314 6.7069C12.4962 6.70677 12.1678 6.80088 11.8835 6.97847C11.5993 7.15607 11.3707 7.41 11.2239 7.71128C11.0808 7.56161 10.9088 7.44253 10.7183 7.36126C10.5279 7.27998 10.3229 7.2382 10.1159 7.23843C9.90878 7.23867 9.70391 7.28091 9.51364 7.36262C9.32337 7.44432 9.15165 7.56379 9.00889 7.71378C8.83842 7.36368 8.55874 7.07851 8.21201 6.90128L8.37451 6.83253C8.39389 6.8244 8.41389 6.8169 8.43389 6.81065C8.65014 6.7419 8.81264 6.57315 8.88701 6.37128L8.88951 6.36503L8.89139 6.35878C8.99514 6.03378 9.29076 5.8069 9.64389 5.8069C9.81516 5.80659 9.98197 5.86152 10.1196 5.96352C10.2571 6.06553 10.3582 6.20918 10.4076 6.37315L10.5314 6.70753L10.8464 6.54128C10.9086 6.50849 10.9748 6.48391 11.0433 6.46815C11.1359 6.44761 11.222 6.40435 11.2938 6.34227C11.3656 6.2802 11.4208 6.20125 11.4545 6.11253L11.4564 6.10815L11.4576 6.10315C11.5123 5.94844 11.6138 5.81456 11.7479 5.72005C11.8821 5.62554 12.0423 5.57508 12.2064 5.57565C12.5001 5.57565 12.7583 5.7344 12.8951 5.9719L13.1383 6.3944L13.4208 5.9969C13.4943 5.89353 13.5915 5.80929 13.7042 5.75122C13.817 5.69315 13.942 5.66295 14.0689 5.66315C14.4151 5.66315 14.7108 5.88315 14.8176 6.19065L14.8183 6.19315C14.8503 6.28415 14.9052 6.36533 14.9778 6.42884C15.0504 6.49235 15.1382 6.53603 15.2326 6.55565C15.4341 6.59974 15.6104 6.72048 15.7244 6.89231C15.8384 7.06413 15.881 7.27357 15.8433 7.47628C15.6623 7.38102 15.4609 7.33145 15.2564 7.3319ZM13.9939 8.4944L13.1814 18.7632H11.2626L11.6689 8.45065C11.6838 8.1512 11.8135 7.86899 12.0311 7.66269C12.2486 7.45639 12.5373 7.34186 12.8371 7.34291C13.137 7.34396 13.4249 7.4605 13.641 7.66831C13.8571 7.87612 13.9848 8.15922 13.9976 8.45878L13.9939 8.4944ZM8.13014 6.86253C7.72066 6.67905 7.25712 6.65647 6.83174 6.79926C6.40637 6.94206 6.05034 7.23977 5.83451 7.63315C5.67964 7.50113 5.49519 7.40843 5.29683 7.36295C5.09847 7.31747 4.89206 7.32054 4.69514 7.3719C4.68551 7.18437 4.74262 6.99948 4.85635 6.85006C4.97008 6.70063 5.13306 6.59633 5.31639 6.55565C5.40927 6.53529 5.49562 6.49212 5.56764 6.43003C5.63965 6.36794 5.69507 6.2889 5.72889 6.20003L5.73139 6.19565L5.73264 6.19065C5.78734 6.03594 5.88878 5.90206 6.02293 5.80755C6.15708 5.71304 6.31729 5.66258 6.48139 5.66315C6.83326 5.66315 7.12264 5.8819 7.23014 6.19065L7.23076 6.19315C7.26276 6.28415 7.31773 6.36533 7.39033 6.42884C7.46292 6.49235 7.5507 6.53603 7.64514 6.55565C7.79184 6.58893 7.92642 6.66228 8.03389 6.76753L8.13014 6.86253ZM6.24889 8.3419C6.28533 8.06243 6.42228 7.80578 6.63414 7.61991C6.84601 7.43404 7.1183 7.33166 7.40014 7.3319C8.02514 7.3319 8.53764 7.82565 8.56264 8.45065L8.97514 18.7632H7.08139L6.26889 8.4944C6.26555 8.44322 6.25846 8.39229 6.24889 8.3419ZM9.34576 2.41128C9.43733 2.39216 9.52236 2.34955 9.59249 2.28764C9.66261 2.22573 9.71544 2.14664 9.74576 2.05815C9.79813 1.9133 9.89383 1.78808 10.0199 1.69952C10.1459 1.61096 10.2961 1.56335 10.4501 1.56315C10.7764 1.56315 11.0533 1.7694 11.1545 2.0644L11.1576 2.0744L11.1614 2.08315C11.2339 2.25628 11.387 2.3769 11.5614 2.41753H11.5626C11.6726 2.44279 11.7755 2.49256 11.8636 2.56312C11.9517 2.63367 12.0227 2.7232 12.0714 2.82503C12.0314 2.84197 11.9922 2.86074 11.9539 2.88128C11.7864 2.74398 11.5889 2.64819 11.3774 2.60173C11.1659 2.55526 10.9464 2.55943 10.7368 2.6139C10.5272 2.66837 10.3335 2.77159 10.1713 2.91516C10.0092 3.05872 9.88331 3.23857 9.80389 3.44003C9.63882 3.48149 9.48299 3.55357 9.34451 3.65253C9.31396 3.64318 9.28311 3.63484 9.25201 3.62753C9.15707 3.37615 8.99226 3.15713 8.77701 2.99628C8.83451 2.70503 9.05764 2.47565 9.34326 2.4119L9.34576 2.41128ZM9.96264 4.0444C10.0571 4.02772 10.1453 3.98605 10.2182 3.92373C10.291 3.86141 10.3459 3.78072 10.377 3.69003C10.4224 3.56457 10.5003 3.45347 10.6029 3.36819C10.7055 3.28292 10.829 3.22655 10.9606 3.20489C11.0923 3.18324 11.2273 3.19709 11.3518 3.24501C11.4763 3.29294 11.5857 3.3732 11.6689 3.47753L11.8676 3.72878L12.1145 3.52253C12.2578 3.40296 12.4385 3.33768 12.6251 3.33815C12.9714 3.33815 13.267 3.55815 13.3739 3.86565L13.3745 3.86815C13.4065 3.95915 13.4615 4.04033 13.5341 4.10384C13.6067 4.16735 13.6944 4.21103 13.7889 4.23065C13.9781 4.27206 14.1456 4.3812 14.2599 4.53753C14.3742 4.69385 14.4274 4.88657 14.4095 5.0794C14.1993 5.0279 13.9801 5.02488 13.7685 5.07057C13.5569 5.11626 13.3585 5.20948 13.1883 5.34315C12.924 5.09072 12.5725 4.9501 12.207 4.95065C11.6026 4.95065 11.082 5.32753 10.8795 5.8644L10.8614 5.8694C10.7351 5.65943 10.5566 5.48574 10.3432 5.36526C10.1298 5.24477 9.88892 5.1816 9.64389 5.1819C9.01264 5.1819 8.48514 5.58815 8.29889 6.1594C8.29703 6.16368 8.29494 6.16785 8.29264 6.1719C8.1463 6.06902 7.98202 5.9944 7.80826 5.9519C7.7069 5.6823 7.5254 5.45022 7.28818 5.28686C7.05096 5.1235 6.76941 5.03671 6.48139 5.03815C6.36389 5.03815 6.25014 5.05253 6.14076 5.0794C6.12264 4.88736 6.17507 4.69528 6.28825 4.53908C6.40143 4.38288 6.56762 4.27324 6.75576 4.23065C6.85149 4.21149 6.94041 4.16726 7.01343 4.10247C7.08646 4.03768 7.14097 3.95466 7.17139 3.8619C7.22801 3.70775 7.33074 3.57477 7.4656 3.48106C7.60046 3.38735 7.76092 3.33745 7.92514 3.33815C8.27139 3.33815 8.56701 3.55815 8.67389 3.86565L8.67451 3.86815C8.70651 3.95915 8.76148 4.04033 8.83408 4.10384C8.90667 4.16735 8.99445 4.21103 9.08889 4.23065C9.15139 4.24503 9.21014 4.26565 9.26514 4.29253L9.46264 4.38815L9.62014 4.23503C9.71514 4.14253 9.83326 4.07565 9.96264 4.0444Z" fill="black"/>
</svg>
