<svg width="20" height="20" viewBox="0 0 20 20" fill="none" xmlns="http://www.w3.org/2000/svg">
<path d="M14.9999 4.99935H13.3333C13.3333 3.15768 11.8416 1.66602 9.99992 1.66602C8.15825 1.66602 6.66659 3.15768 6.66659 4.99935H4.99992C4.08325 4.99935 3.33325 5.74935 3.33325 6.66602V16.666C3.33325 17.5827 4.08325 18.3327 4.99992 18.3327H14.9999C15.9166 18.3327 16.6666 17.5827 16.6666 16.666V6.66602C16.6666 5.74935 15.9166 4.99935 14.9999 4.99935ZM9.99992 3.33268C10.9166 3.33268 11.6666 4.08268 11.6666 4.99935H8.33325C8.33325 4.08268 9.08325 3.33268 9.99992 3.33268ZM14.9999 16.666H4.99992V6.66602H6.66659V8.33268C6.66659 8.79102 7.04159 9.16602 7.49992 9.16602C7.95825 9.16602 8.33325 8.79102 8.33325 8.33268V6.66602H11.6666V8.33268C11.6666 8.79102 12.0416 9.16602 12.4999 9.16602C12.9583 9.16602 13.3333 8.79102 13.3333 8.33268V6.66602H14.9999V16.666Z" fill="black"/>
</svg>
