<svg width="24" height="24" viewBox="0 0 24 24" fill="none" xmlns="http://www.w3.org/2000/svg">
<path d="M19 7.5C19.2833 7.5 19.521 7.404 19.713 7.212C19.905 7.02 20.0007 6.78267 20 6.5C20 6.21667 19.904 5.979 19.712 5.787C19.52 5.595 19.2827 5.49934 19 5.5C18.7167 5.5 18.479 5.596 18.287 5.788C18.095 5.98 17.9993 6.21734 18 6.5C18 6.78334 18.096 7.021 18.288 7.213C18.48 7.405 18.7173 7.50067 19 7.5ZM15 7.5C15.2833 7.5 15.521 7.404 15.713 7.212C15.905 7.02 16.0007 6.78267 16 6.5C16 6.21667 15.904 5.979 15.712 5.787C15.52 5.595 15.2827 5.49934 15 5.5C14.7167 5.5 14.479 5.596 14.287 5.788C14.095 5.98 13.9993 6.21734 14 6.5C14 6.78334 14.096 7.021 14.288 7.213C14.48 7.405 14.7173 7.50067 15 7.5ZM15.2 10.9H18.8C19.0167 10.9 19.1833 10.829 19.3 10.687C19.4167 10.545 19.4333 10.391 19.35 10.225C19.1667 9.84167 18.8583 9.54167 18.425 9.325C17.9917 9.10834 17.5167 9 17 9C16.4833 9 16.0083 9.10834 15.575 9.325C15.1417 9.54167 14.8333 9.84167 14.65 10.225C14.5667 10.3917 14.5833 10.546 14.7 10.688C14.8167 10.83 14.9833 10.9007 15.2 10.9ZM7 22C5.33333 22 3.91667 21.4167 2.75 20.25C1.58333 19.0833 1 17.6667 1 16V11C1 10.45 1.196 9.979 1.588 9.587C1.98 9.195 2.45067 8.99934 3 9H11C11.55 9 12.021 9.196 12.413 9.588C12.805 9.98 13.0007 10.4507 13 11V16C13 17.6667 12.4167 19.0833 11.25 20.25C10.0833 21.4167 8.66667 22 7 22ZM7 20C8.1 20 9.04167 19.6083 9.825 18.825C10.6083 18.0417 11 17.1 11 16V11H3V16C3 17.1 3.39167 18.0417 4.175 18.825C4.95833 19.6083 5.9 20 7 20ZM17 15C16.5667 15 16.1373 14.954 15.712 14.862C15.2867 14.77 14.8827 14.6327 14.5 14.45V12.1C14.8667 12.3833 15.2627 12.6043 15.688 12.763C16.1133 12.9217 16.5507 13.0007 17 13C18.1 13 19.0417 12.6083 19.825 11.825C20.6083 11.0417 21 10.1 21 9V4H13V7.5H11V4C11 3.45 11.196 2.979 11.588 2.587C11.98 2.195 12.4507 1.99934 13 2H21C21.55 2 22.021 2.196 22.413 2.588C22.805 2.98 23.0007 3.45067 23 4V9C23 10.6667 22.4167 12.0833 21.25 13.25C20.0833 14.4167 18.6667 15 17 15ZM5 14.5C5.28333 14.5 5.521 14.404 5.713 14.212C5.905 14.02 6.00067 13.7827 6 13.5C6 13.2167 5.904 12.979 5.712 12.787C5.52 12.595 5.28267 12.4993 5 12.5C4.71667 12.5 4.479 12.596 4.287 12.788C4.095 12.98 3.99933 13.2173 4 13.5C4 13.7833 4.096 14.021 4.288 14.213C4.48 14.405 4.71733 14.5007 5 14.5ZM9 14.5C9.28333 14.5 9.521 14.404 9.713 14.212C9.905 14.02 10.0007 13.7827 10 13.5C10 13.2167 9.904 12.979 9.712 12.787C9.52 12.595 9.28267 12.4993 9 12.5C8.71667 12.5 8.479 12.596 8.287 12.788C8.095 12.98 7.99933 13.2173 8 13.5C8 13.7833 8.096 14.021 8.288 14.213C8.48 14.405 8.71733 14.5007 9 14.5ZM7 17.9C7.51667 17.9 7.98333 17.7917 8.4 17.575C8.81667 17.3583 9.11667 17.0833 9.3 16.75C9.38333 16.5833 9.38333 16.4167 9.3 16.25C9.21667 16.0833 9.06667 16 8.85 16H5.15C4.91667 16 4.76233 16.0833 4.687 16.25C4.61167 16.4167 4.616 16.5833 4.7 16.75C4.88333 17.0833 5.18767 17.3583 5.613 17.575C6.03833 17.7917 6.50067 17.9 7 17.9Z" fill="black"/>
</svg>
