<svg width="46" height="46" viewBox="0 0 46 46" fill="none" xmlns="http://www.w3.org/2000/svg">
<path fill-rule="evenodd" clip-rule="evenodd" d="M23.0003 42.3937C23.0003 42.3937 36.4256 24.4634 36.4256 17.0347C36.4256 13.4741 35.0112 10.0593 32.4934 7.54156C29.9757 5.02383 26.5609 3.60938 23.0003 3.60938C19.4397 3.60938 16.0249 5.02383 13.5071 7.54156C10.9894 10.0593 9.57495 13.4741 9.57495 17.0347C9.57495 24.4634 23.0003 42.3937 23.0003 42.3937ZM28.7503 17.2507C28.7503 20.4263 26.1759 23.0007 23.0003 23.0007C19.8246 23.0007 17.2503 20.4263 17.2503 17.2507C17.2503 14.075 19.8246 11.5007 23.0003 11.5007C26.1759 11.5007 28.7503 14.075 28.7503 17.2507Z" fill="#095DDA"/>
</svg>
