<svg width="22" height="22" viewBox="0 0 22 22" fill="none" xmlns="http://www.w3.org/2000/svg">
<path d="M11 19.25C10.724 19.2497 10.4545 19.1663 10.2266 19.0107C6.84964 16.7183 5.38741 15.1465 4.58089 14.1638C2.86214 12.0691 2.03929 9.91848 2.06249 7.58957C2.08956 4.92078 4.23069 2.75 6.83546 2.75C8.72952 2.75 10.0414 3.81691 10.8053 4.70551C10.8295 4.73337 10.8594 4.75572 10.893 4.77103C10.9266 4.78634 10.9631 4.79427 11 4.79427C11.0369 4.79427 11.0734 4.78634 11.107 4.77103C11.1405 4.75572 11.1704 4.73337 11.1946 4.70551C11.9586 3.81605 13.2705 2.75 15.1645 2.75C17.7693 2.75 19.9104 4.92078 19.9375 7.59C19.9607 9.91934 19.137 12.0699 17.4191 14.1642C16.6126 15.1469 15.1503 16.7187 11.7734 19.0111C11.5454 19.1665 11.2759 19.2498 11 19.25Z" fill="black"/>
</svg>
