<svg width="18" height="24" viewBox="0 0 18 24" fill="none" xmlns="http://www.w3.org/2000/svg">
<path d="M16.009 9.00452C16.009 12.8804 9.00452 22.2353 9.00452 22.2353C9.00452 22.2353 2 12.8804 2 9.00452C2 7.14681 2.73797 5.36518 4.05158 4.05158C5.36518 2.73797 7.1468 2 9.00452 2C10.8622 2 12.6439 2.73797 13.9575 4.05158C15.2711 5.36518 16.009 7.14681 16.009 9.00452Z" fill="black" stroke="black" stroke-width="3.03756" stroke-linecap="round" stroke-linejoin="round"/>
<path d="M9.00446 11.3396C10.294 11.3396 11.3393 10.2943 11.3393 9.00476C11.3393 7.71527 10.294 6.66992 9.00446 6.66992C7.71496 6.66992 6.66962 7.71527 6.66962 9.00476C6.66962 10.2943 7.71496 11.3396 9.00446 11.3396Z" fill="white" stroke="white" stroke-width="3.03756" stroke-linecap="round" stroke-linejoin="round"/>
</svg>
