<svg width="24" height="24" viewBox="0 0 24 24" fill="none" xmlns="http://www.w3.org/2000/svg">
<path d="M13.926 14.3017C14.171 14.1107 14.3931 13.8887 14.8381 13.4437L20.3781 7.90368C20.5121 7.76968 20.451 7.53868 20.272 7.47669C19.4056 7.1739 18.6192 6.67846 17.9721 6.02768C17.3209 5.38061 16.8251 4.59419 16.522 3.72768C16.4611 3.54768 16.2301 3.48768 16.0961 3.62168L10.5561 9.16168C10.1111 9.60569 9.88905 9.82869 9.69805 10.0737C9.47244 10.3625 9.27896 10.675 9.12105 11.0057C8.98805 11.2857 8.88805 11.5847 8.69005 12.1807L8.43305 12.9507L8.02405 14.1767L7.64205 15.3247C7.59434 15.4685 7.58753 15.6227 7.6224 15.7701C7.65726 15.9175 7.73242 16.0523 7.83948 16.1594C7.94654 16.2666 8.08128 16.3419 8.22865 16.3769C8.37603 16.4119 8.53024 16.4053 8.67405 16.3577L9.82405 15.9747L11.0481 15.5667L11.818 15.3097C12.4151 15.1107 12.713 15.0117 12.9931 14.8777C13.3241 14.7203 13.637 14.5271 13.926 14.3017ZM22.1131 6.16968C22.681 5.60186 23.0001 4.83166 23.0002 4.02854C23.0003 3.22541 22.6814 2.45515 22.1136 1.88718C21.5457 1.31922 20.7755 1.00009 19.9724 1C19.1693 0.999906 18.399 1.31886 17.831 1.88668L17.6521 2.06468C17.5675 2.14838 17.5046 2.25137 17.4687 2.36477C17.4329 2.47818 17.4251 2.5986 17.446 2.71568C17.4731 2.86568 17.5231 3.08568 17.6141 3.34868C17.8593 4.05055 18.2607 4.68756 18.7881 5.21168C19.3119 5.73889 19.9485 6.14031 20.6501 6.38568C20.913 6.47569 21.1331 6.52668 21.2831 6.55368C21.5231 6.59668 21.7631 6.51868 21.9351 6.34668L22.1131 6.16968Z" fill="#696969"/>
</svg>
