<svg width="17" height="16" viewBox="0 0 17 16" fill="none" xmlns="http://www.w3.org/2000/svg">
<path d="M8.41794 0.542969C4.15694 0.542969 0.69873 4.00117 0.69873 8.26218C0.69873 12.5232 4.15694 15.9814 8.41794 15.9814C12.6789 15.9814 16.1371 12.5232 16.1371 8.26218C16.1371 4.00117 12.6789 0.542969 8.41794 0.542969ZM8.41794 3.63065C9.90774 3.63065 11.1197 4.84257 11.1197 6.33237C11.1197 7.82218 9.90774 9.0341 8.41794 9.0341C6.92813 9.0341 5.71622 7.82218 5.71622 6.33237C5.71622 4.84257 6.92813 3.63065 8.41794 3.63065ZM8.41794 14.4375C6.85094 14.4375 4.99833 13.8046 3.67834 12.2144C5.03044 11.1536 6.69935 10.577 8.41794 10.577C10.1365 10.577 11.8054 11.1536 13.1575 12.2144C11.8375 13.8046 9.98494 14.4375 8.41794 14.4375Z" fill="black"/>
</svg>
