<svg width="17" height="18" viewBox="0 0 17 18" fill="none" xmlns="http://www.w3.org/2000/svg">
<path d="M10.3174 10.9487L3.42063 14.1571L6.62901 7.26036L13.5258 4.05198M8.4732 0.683594C7.36734 0.683594 6.27232 0.901408 5.25064 1.3246C4.22896 1.74779 3.30064 2.36808 2.51869 3.15003C0.939451 4.72927 0.0522461 6.87117 0.0522461 9.10455C0.0522461 11.3379 0.939451 13.4798 2.51869 15.0591C3.30064 15.841 4.22896 16.4613 5.25064 16.8845C6.27232 17.3077 7.36734 17.5255 8.4732 17.5255C10.7066 17.5255 12.8485 16.6383 14.4277 15.0591C16.0069 13.4798 16.8942 11.3379 16.8942 9.10455C16.8942 7.99869 16.6763 6.90367 16.2531 5.88199C15.83 4.86031 15.2097 3.93199 14.4277 3.15003C13.6458 2.36808 12.7174 1.74779 11.6958 1.3246C10.6741 0.901408 9.57905 0.683594 8.4732 0.683594ZM8.4732 8.17824C8.22753 8.17824 7.99192 8.27584 7.8182 8.44955C7.64449 8.62327 7.54689 8.85888 7.54689 9.10455C7.54689 9.35022 7.64449 9.58583 7.8182 9.75954C7.99192 9.93326 8.22753 10.0309 8.4732 10.0309C8.71887 10.0309 8.95448 9.93326 9.1282 9.75954C9.30191 9.58583 9.3995 9.35022 9.3995 9.10455C9.3995 8.85888 9.30191 8.62327 9.1282 8.44955C8.95448 8.27584 8.71887 8.17824 8.4732 8.17824Z" fill="black"/>
</svg>
