<svg width="36" height="35" viewBox="0 0 36 35" fill="none" xmlns="http://www.w3.org/2000/svg">
<path d="M17.9486 26.8136L17.8041 26.9582L17.6451 26.8136C10.7789 20.5835 6.23999 16.4638 6.23999 12.2862C6.23999 9.39522 8.40825 7.22696 11.2993 7.22696C13.5254 7.22696 15.6936 8.67247 16.4597 10.6384H19.1484C19.9145 8.67247 22.0828 7.22696 24.3089 7.22696C27.1999 7.22696 29.3681 9.39522 29.3681 12.2862C29.3681 16.4638 24.8292 20.5835 17.9486 26.8136ZM24.3089 4.33594C21.7937 4.33594 19.3797 5.5068 17.8041 7.3426C16.2285 5.5068 13.8145 4.33594 11.2993 4.33594C6.8471 4.33594 3.34897 7.81962 3.34897 12.2862C3.34897 17.7358 8.2637 22.2024 15.7081 28.953L17.8041 30.861L19.9001 28.953C27.3444 22.2024 32.2592 17.7358 32.2592 12.2862C32.2592 7.81962 28.761 4.33594 24.3089 4.33594Z" fill="#095DDA"/>
</svg>
