<svg width="17" height="19" viewBox="0 0 17 19" fill="none" xmlns="http://www.w3.org/2000/svg">
<path d="M13.314 6.73677C13.5526 6.73677 13.7528 6.65592 13.9145 6.49424C14.0761 6.33256 14.1567 6.1327 14.1561 5.89467V4.21048H15.8403C16.0789 4.21048 16.2791 4.12964 16.4407 3.96796C16.6024 3.80627 16.683 3.60642 16.6824 3.36838C16.6824 3.12979 16.6016 2.92965 16.4399 2.76797C16.2782 2.60629 16.0784 2.52573 15.8403 2.52629H14.1561V0.842098C14.1561 0.603505 14.0753 0.403367 13.9136 0.241684C13.7519 0.080002 13.5521 -0.000558483 13.314 2.91382e-06C13.0755 2.91382e-06 12.8753 0.0808441 12.7136 0.242526C12.552 0.404209 12.4714 0.604066 12.472 0.842098V2.52629H10.7878C10.5492 2.52629 10.349 2.60713 10.1873 2.76881C10.0257 2.9305 9.9451 3.13035 9.94567 3.36838C9.94567 3.60698 10.0265 3.80712 10.1882 3.9688C10.3499 4.13048 10.5497 4.21104 10.7878 4.21048H12.472V5.89467C12.472 6.13326 12.5528 6.3334 12.7145 6.49508C12.8762 6.65677 13.076 6.73733 13.314 6.73677ZM7.41938 10.1051C7.88253 10.1051 8.27916 9.9401 8.60926 9.61C8.93936 9.27989 9.10413 8.88355 9.10357 8.42096C9.10357 7.9578 8.93852 7.56118 8.60842 7.23108C8.27832 6.90097 7.88197 6.7362 7.41938 6.73677C6.95623 6.73677 6.5596 6.90182 6.2295 7.23192C5.8994 7.56202 5.73463 7.95837 5.73519 8.42096C5.73519 8.88411 5.90024 9.28074 6.23034 9.61084C6.56044 9.94094 6.95679 10.1057 7.41938 10.1051ZM7.41938 18.2103C7.3071 18.2103 7.19482 18.1893 7.08254 18.1472C6.97026 18.1051 6.87202 18.0489 6.78781 17.9787C4.73871 16.1682 3.2089 14.4874 2.19839 12.9363C1.18787 11.3851 0.682617 9.93617 0.682617 8.58938C0.682617 6.48414 1.35994 4.80696 2.71459 3.55786C4.06924 2.30875 5.63751 1.68419 7.41938 1.68419C7.55973 1.68419 7.70008 1.68784 7.84043 1.69514C7.98078 1.70244 8.12113 1.71282 8.26148 1.7263V3.43154C8.12113 3.40347 7.98415 3.38579 7.85053 3.37849C7.71692 3.37119 7.5732 3.36782 7.41938 3.36838C6.00185 3.36838 4.80523 3.85624 3.82953 4.83195C2.85382 5.80765 2.36625 7.06013 2.36681 8.58938C2.36681 9.58586 2.78084 10.7263 3.6089 12.0108C4.43696 13.2953 5.70712 14.7232 7.41938 16.2945C9.13164 14.7226 10.4018 13.2944 11.2299 12.01C12.0579 10.7255 12.472 9.58529 12.472 8.58938V8.42096H14.1561V8.58938C14.1561 9.93673 13.6509 11.386 12.6404 12.9371C11.6299 14.4883 10.1 16.1688 8.05095 17.9787C7.96674 18.0489 7.8685 18.1051 7.75622 18.1472C7.64394 18.1893 7.53166 18.2103 7.41938 18.2103Z" fill="#095DDA"/>
</svg>
