<svg width="11" height="15" viewBox="0 0 11 15" fill="none" xmlns="http://www.w3.org/2000/svg">
<path d="M9.87796 5.55361C9.87796 7.976 5.50014 13.8228 5.50014 13.8228C5.50014 13.8228 1.12231 7.976 1.12231 5.55361C1.12231 4.39253 1.58355 3.27902 2.40455 2.45802C3.22555 1.63701 4.33907 1.17578 5.50014 1.17578C6.66121 1.17578 7.77473 1.63701 8.59573 2.45802C9.41673 3.27902 9.87796 4.39253 9.87796 5.55361Z" fill="black" stroke="black" stroke-width="1.89847" stroke-linecap="round" stroke-linejoin="round"/>
<path d="M5.50005 7.0123C6.30598 7.0123 6.95932 6.35896 6.95932 5.55302C6.95932 4.74709 6.30598 4.09375 5.50005 4.09375C4.69411 4.09375 4.04077 4.74709 4.04077 5.55302C4.04077 6.35896 4.69411 7.0123 5.50005 7.0123Z" fill="white" stroke="white" stroke-width="1.89847" stroke-linecap="round" stroke-linejoin="round"/>
</svg>
