<svg width="24" height="24" viewBox="0 0 24 24" fill="none" xmlns="http://www.w3.org/2000/svg">
<path d="M20.7712 9.45444L13.2759 2.37913L13.2609 2.36506C12.9165 2.04983 12.4665 1.875 11.9995 1.875C11.5326 1.875 11.0826 2.04983 10.7381 2.36506L10.7222 2.37913L3.22875 9.45444C3.03872 9.63026 2.88702 9.8434 2.78313 10.0805C2.67924 10.3177 2.62541 10.5737 2.625 10.8326V19.4997C2.625 19.997 2.82254 20.4739 3.17417 20.8256C3.52581 21.1772 4.00272 21.3747 4.5 21.3747H9C9.49728 21.3747 9.97419 21.1772 10.3258 20.8256C10.6775 20.4739 10.875 19.997 10.875 19.4997V15.3748H13.125V19.4997C13.125 19.997 13.3225 20.4739 13.6742 20.8256C14.0258 21.1772 14.5027 21.3747 15 21.3747H19.5C19.9973 21.3747 20.4742 21.1772 20.8258 20.8256C21.1775 20.4739 21.375 19.997 21.375 19.4997V10.8326C21.3746 10.5737 21.3208 10.3177 21.2169 10.0805C21.113 9.8434 20.9613 9.63026 20.7712 9.45444ZM19.125 19.1247H15.375V14.9998C15.375 14.7535 15.3265 14.5097 15.2323 14.2822C15.138 14.0547 14.9999 13.848 14.8258 13.6739C14.6517 13.4998 14.445 13.3617 14.2175 13.2675C13.99 13.1732 13.7462 13.1248 13.5 13.1248H10.5C10.0027 13.1248 9.52581 13.3223 9.17417 13.6739C8.82254 14.0256 8.625 14.5025 8.625 14.9998V19.1247H4.875V10.9948L12 4.26819L19.125 10.9948V19.1247Z" fill="black"/>
</svg>
