<svg width="42" height="42" viewBox="0 0 42 42" fill="none" xmlns="http://www.w3.org/2000/svg">
<circle cx="21" cy="21" r="20.5" transform="matrix(-1 0 0 1 42 0)" fill="white" stroke="#C5C5C5"/>
<path d="M22.6464 13.6464C22.8417 13.4512 23.1583 13.4512 23.3536 13.6464C23.5488 13.8417 23.5488 14.1583 23.3536 14.3536L22.6464 13.6464ZM23.3536 14.3536L16.5607 21.1464L15.8536 20.4393L22.6464 13.6464L23.3536 14.3536ZM16.5607 21.8536L23.3536 28.6464L22.6464 29.3536L15.8536 22.5607L16.5607 21.8536ZM16.5607 21.1464C16.3654 21.3417 16.3654 21.6583 16.5607 21.8536L15.8536 22.5607C15.2678 21.9749 15.2678 21.0251 15.8536 20.4393L16.5607 21.1464Z" fill="#C5C5C5"/>
</svg>
