<svg width="28" height="28" viewBox="0 0 28 28" fill="none" xmlns="http://www.w3.org/2000/svg">
<path d="M7.87492 4.66602H20.1249C20.9419 4.66598 21.7282 4.97762 22.3233 5.53739C22.9184 6.09716 23.2775 6.86287 23.3274 7.67835L23.3333 7.87435V11.7873C23.9692 11.9679 24.5339 12.3403 24.9502 12.8538C25.3666 13.3672 25.6143 13.9967 25.6596 14.6562L25.6666 14.8743V23.6243C25.6665 23.846 25.5823 24.0594 25.431 24.2214C25.2796 24.3834 25.0724 24.4819 24.8512 24.497C24.63 24.5122 24.4114 24.4427 24.2394 24.3028C24.0674 24.1629 23.955 23.963 23.9248 23.7433L23.9166 23.6243V20.9993H4.08325V23.6243C4.08324 23.8358 4.00667 24.0401 3.86769 24.1994C3.72871 24.3588 3.53673 24.4624 3.32725 24.4912L3.20825 24.4993C2.99681 24.4993 2.79252 24.4228 2.63317 24.2838C2.47381 24.1448 2.37017 23.9528 2.34142 23.7433L2.33325 23.6243V14.8743C2.33325 13.4055 3.32025 12.1677 4.66659 11.7862V7.87435C4.66654 7.05735 4.97819 6.27111 5.53796 5.676C6.09773 5.0809 6.86344 4.72176 7.67892 4.67185L7.87492 4.66602ZM22.4583 13.416H5.54159C5.18055 13.4159 4.83229 13.5496 4.56419 13.7914C4.29609 14.0332 4.12722 14.3659 4.09025 14.725L4.08325 14.8743V19.2493H23.9166V14.8743C23.9165 14.5135 23.7826 14.1655 23.5408 13.8977C23.299 13.6298 22.9665 13.4611 22.6076 13.4242L22.4583 13.416ZM20.1249 6.41602H7.87492C7.51388 6.41585 7.16562 6.54961 6.89753 6.79142C6.62943 7.03322 6.46056 7.36588 6.42359 7.72502L6.41658 7.87435V11.666H8.16658C8.16658 11.3566 8.2895 11.0599 8.50829 10.8411C8.72709 10.6223 9.02383 10.4993 9.33325 10.4993H11.6666C11.9523 10.4994 12.2281 10.6043 12.4417 10.7942C12.6552 10.9841 12.7917 11.2457 12.8251 11.5295L12.8333 11.666H15.1666C15.1666 11.3566 15.2895 11.0599 15.5083 10.8411C15.7271 10.6223 16.0238 10.4993 16.3333 10.4993H18.6666C18.9523 10.4994 19.2281 10.6043 19.4417 10.7942C19.6552 10.9841 19.7917 11.2457 19.8251 11.5295L19.8333 11.666H21.5833V7.87435C21.5834 7.51331 21.4497 7.16505 21.2078 6.89696C20.966 6.62886 20.6334 6.45999 20.2743 6.42302L20.1249 6.41602Z" fill="black"/>
</svg>
