<svg width="19" height="19" viewBox="0 0 19 19" fill="none" xmlns="http://www.w3.org/2000/svg">
<path d="M14.4479 0.791016C14.238 0.791016 14.0366 0.874423 13.8881 1.02289C13.7397 1.17136 13.6562 1.37272 13.6562 1.58268V5.54102C13.6562 5.75098 13.7397 5.95234 13.8881 6.10081C14.0366 6.24928 14.238 6.33268 14.4479 6.33268H15.4375V17.7129C15.4375 17.8441 15.4896 17.97 15.5824 18.0628C15.6752 18.1556 15.8011 18.2077 15.9323 18.2077C16.0635 18.2077 16.1894 18.1556 16.2822 18.0628C16.375 17.97 16.4271 17.8441 16.4271 17.7129V6.33268H17.4167C17.6266 6.33268 17.828 6.24928 17.9765 6.10081C18.1249 5.95234 18.2083 5.75098 18.2083 5.54102V1.58268C18.2083 1.37272 18.1249 1.17136 17.9765 1.02289C17.828 0.874423 17.6266 0.791016 17.4167 0.791016H14.4479ZM12.8646 2.44837C12.6677 2.39909 12.4655 2.37423 12.2625 2.37435H6.59933C6.04562 2.3744 5.50794 2.5602 5.07232 2.90201C4.63671 3.24382 4.32836 3.72189 4.19662 4.2597L3.88313 5.54102H2.86979C2.73856 5.54102 2.61271 5.59315 2.51992 5.68594C2.42713 5.77873 2.375 5.90458 2.375 6.03581C2.375 6.16703 2.42713 6.29289 2.51992 6.38568C2.61271 6.47847 2.73856 6.5306 2.86979 6.5306H3.64087L3.46948 7.23004C3.14813 7.34999 2.8711 7.56527 2.67549 7.84705C2.47988 8.12882 2.37504 8.46363 2.375 8.80664V15.7337C2.375 16.0749 2.51054 16.4021 2.75179 16.6434C2.99305 16.8846 3.32027 17.0202 3.66146 17.0202H5.04687C5.38806 17.0202 5.71528 16.8846 5.95654 16.6434C6.1978 16.4021 6.33333 16.0749 6.33333 15.7337V14.4473H12.6667V15.7337C12.6667 16.0749 12.8022 16.4021 13.0435 16.6434C13.2847 16.8846 13.6119 17.0202 13.9531 17.0202H14.6458V16.0306H13.9531C13.8744 16.0306 13.7989 15.9993 13.7432 15.9436C13.6875 15.888 13.6562 15.8125 13.6562 15.7337V14.4473H14.6458V13.4577H3.36458V8.80664C3.36458 8.42427 3.67492 8.11393 4.05729 8.11393H14.6458V7.12435H4.51408L5.1581 4.49522C5.23713 4.17252 5.42214 3.88566 5.6835 3.68056C5.94487 3.47546 6.26749 3.36397 6.59973 3.36393H12.2629C12.4751 3.36393 12.6797 3.40906 12.865 3.49139L12.8646 2.44837ZM8.01562 11.0827C7.8844 11.0827 7.75855 11.1348 7.66575 11.2276C7.57296 11.3204 7.52083 11.4462 7.52083 11.5775C7.52083 11.7087 7.57296 11.8346 7.66575 11.9273C7.75855 12.0201 7.8844 12.0723 8.01562 12.0723H10.9844C11.1156 12.0723 11.2415 12.0201 11.3342 11.9273C11.427 11.8346 11.4792 11.7087 11.4792 11.5775C11.4792 11.4462 11.427 11.3204 11.3342 11.2276C11.2415 11.1348 11.1156 11.0827 10.9844 11.0827H8.01562ZM5.54167 11.0827C5.75163 11.0827 5.95299 10.9993 6.10146 10.8508C6.24993 10.7023 6.33333 10.501 6.33333 10.291C6.33333 10.0811 6.24993 9.87969 6.10146 9.73122C5.95299 9.58276 5.75163 9.49935 5.54167 9.49935C5.3317 9.49935 5.13034 9.58276 4.98187 9.73122C4.83341 9.87969 4.75 10.0811 4.75 10.291C4.75 10.501 4.83341 10.7023 4.98187 10.8508C5.13034 10.9993 5.3317 11.0827 5.54167 11.0827ZM14.25 10.291C14.25 10.501 14.1666 10.7023 14.0181 10.8508C13.8697 10.9993 13.6683 11.0827 13.4583 11.0827C13.2484 11.0827 13.047 10.9993 12.8985 10.8508C12.7501 10.7023 12.6667 10.501 12.6667 10.291C12.6667 10.0811 12.7501 9.87969 12.8985 9.73122C13.047 9.58276 13.2484 9.49935 13.4583 9.49935C13.6683 9.49935 13.8697 9.58276 14.0181 9.73122C14.1666 9.87969 14.25 10.0811 14.25 10.291ZM3.36458 15.7337V14.4473H5.34375V15.7337C5.34375 15.8125 5.31247 15.888 5.2568 15.9436C5.20112 15.9993 5.12561 16.0306 5.04687 16.0306H3.66146C3.58272 16.0306 3.50721 15.9993 3.45154 15.9436C3.39586 15.888 3.36458 15.8125 3.36458 15.7337Z" fill="black"/>
</svg>
