<svg width="22" height="22" viewBox="0 0 22 22" fill="none" xmlns="http://www.w3.org/2000/svg">
<path d="M4.07874 8.35922H5.80178L6.06666 16.2792H3.8495L4.07874 8.35922ZM2.63994 16.7192H19.3599V17.5992H20.6799V18.9192H21.5599V19.7992H0.439941V18.9192H1.31994V17.5992H2.63994V16.7192ZM20.2399 6.0765L11.0008 2.19922L1.75994 6.0765V6.59922H20.2399V6.0765ZM3.51994 7.03922H18.4799V7.91922H3.51994V7.03922ZM16.1638 8.35922H17.8859L18.153 16.2792H15.9328L16.1638 8.35922ZM12.1369 8.35922H13.8591L14.1231 16.2792H11.905L12.1369 8.35922ZM8.10914 8.35922H9.83174L10.094 16.2792H7.87682L8.10914 8.35922Z" fill="black"/>
</svg>
