<svg width="18" height="18" viewBox="0 0 18 18" fill="none" xmlns="http://www.w3.org/2000/svg">
<g clip-path="url(#clip0_49_2517)">
<path d="M17.3571 11.9046L12.4843 5.47602C12.3647 5.35551 12.2225 5.25986 12.0659 5.19458C11.9092 5.12931 11.7411 5.0957 11.5714 5.0957C11.4017 5.0957 11.2336 5.12931 11.0769 5.19458C10.9203 5.25986 10.7781 5.35551 10.6585 5.47602L0.642822 17.356H17.3571" stroke="black" stroke-width="1.28571" stroke-linecap="round" stroke-linejoin="round"/>
<path d="M6.02991 10.9277L7.91991 12.2134C8.13766 12.3685 8.39832 12.4518 8.66562 12.4518C8.93293 12.4518 9.19359 12.3685 9.41134 12.2134L10.5556 11.352C10.7782 11.1851 11.0489 11.0949 11.3271 11.0949C11.6052 11.0949 11.8759 11.1851 12.0985 11.352L13.2428 12.2134C13.4593 12.3656 13.7174 12.4473 13.9821 12.4473C14.2467 12.4473 14.5048 12.3656 14.7213 12.2134L16.6242 10.9277" stroke="black" stroke-width="1.28571" stroke-linecap="round" stroke-linejoin="round"/>
<path d="M3.85711 7.07115C5.63231 7.07115 7.07139 5.63206 7.07139 3.85686C7.07139 2.08166 5.63231 0.642578 3.85711 0.642578C2.08191 0.642578 0.642822 2.08166 0.642822 3.85686C0.642822 5.63206 2.08191 7.07115 3.85711 7.07115Z" stroke="black" stroke-width="1.28571" stroke-linecap="round" stroke-linejoin="round"/>
</g>
<defs>
<clipPath id="clip0_49_2517">
<rect width="18" height="18" fill="white"/>
</clipPath>
</defs>
</svg>
