<svg width="23" height="18" viewBox="0 0 23 18" fill="none" xmlns="http://www.w3.org/2000/svg">
<path d="M21.8871 11.1555H18.5382C18.5447 11.0321 18.5484 10.9088 18.5484 10.7845C18.5484 8.91517 17.8058 7.12238 16.484 5.80055C15.1621 4.47872 13.3693 3.73613 11.5 3.73613C9.63065 3.73613 7.83787 4.47872 6.51604 5.80055C5.19421 7.12238 4.45161 8.91517 4.45161 10.7845C4.45161 10.9088 4.45161 11.0321 4.46181 11.1555H1.1129C0.817743 11.1555 0.534672 11.2727 0.325962 11.4814C0.117252 11.6902 0 11.9732 0 12.2684C0 12.5635 0.117252 12.8466 0.325962 13.0553C0.534672 13.264 0.817743 13.3813 1.1129 13.3813H21.8871C22.1823 13.3813 22.4653 13.264 22.674 13.0553C22.8827 12.8466 23 12.5635 23 12.2684C23 11.9732 22.8827 11.6902 22.674 11.4814C22.4653 11.2727 22.1823 11.1555 21.8871 11.1555ZM6.67742 10.7845C6.67742 9.50549 7.18551 8.27884 8.08992 7.37443C8.99433 6.47003 10.221 5.96193 11.5 5.96193C12.779 5.96193 14.0057 6.47003 14.9101 7.37443C15.8145 8.27884 16.3226 9.50549 16.3226 10.7845C16.3226 10.9088 16.3161 11.0321 16.3068 11.1555H6.69319C6.68391 11.0321 6.67742 10.9088 6.67742 10.7845ZM20.0323 15.9781C20.0323 16.2732 19.915 16.5563 19.7063 16.765C19.4976 16.9737 19.2145 17.091 18.9194 17.091H4.08065C3.78549 17.091 3.50241 16.9737 3.2937 16.765C3.08499 16.5563 2.96774 16.2732 2.96774 15.9781C2.96774 15.6829 3.08499 15.3998 3.2937 15.1911C3.50241 14.9824 3.78549 14.8652 4.08065 14.8652H18.9194C19.2145 14.8652 19.4976 14.9824 19.7063 15.1911C19.915 15.3998 20.0323 15.6829 20.0323 15.9781ZM0.799435 5.98141C0.892772 5.70158 1.09339 5.47025 1.35719 5.33826C1.621 5.20627 1.92642 5.18442 2.20633 5.2775L3.31923 5.64847C3.45939 5.6934 3.58924 5.7657 3.70127 5.86116C3.8133 5.95663 3.90528 6.07337 3.97188 6.20462C4.03848 6.33588 4.07839 6.47904 4.08929 6.62582C4.10019 6.7726 4.08186 6.92009 4.03537 7.05974C3.98888 7.19939 3.91515 7.32843 3.81845 7.4394C3.72175 7.55036 3.604 7.64104 3.47202 7.70619C3.34003 7.77133 3.19644 7.80965 3.04955 7.81892C2.90265 7.82819 2.75538 7.80823 2.61625 7.7602L1.50335 7.38923C1.36468 7.34302 1.23648 7.26995 1.12606 7.17419C1.01564 7.07843 0.925158 6.96185 0.859793 6.83112C0.794427 6.70039 0.755453 6.55806 0.745097 6.41227C0.734741 6.26647 0.753205 6.12007 0.799435 5.98141ZM5.99298 1.49177C5.94242 1.35211 5.92032 1.20373 5.928 1.0554C5.93567 0.907059 5.97296 0.761758 6.03767 0.628059C6.10239 0.494359 6.19321 0.374967 6.30478 0.276918C6.41636 0.178868 6.54643 0.104147 6.68734 0.057157C6.82825 0.0101671 6.97714 -0.00814021 7.12523 0.00331397C7.27333 0.0147681 7.41763 0.0557522 7.54964 0.12385C7.68164 0.191948 7.79868 0.285783 7.89385 0.399823C7.98903 0.513863 8.06041 0.645801 8.10379 0.78786L8.47476 1.90076C8.52532 2.04043 8.54742 2.1888 8.53975 2.33714C8.53207 2.48548 8.49478 2.63078 8.43007 2.76448C8.36536 2.89818 8.27454 3.01757 8.16296 3.11562C8.05138 3.21367 7.92131 3.28839 7.7804 3.33538C7.63949 3.38237 7.4906 3.40068 7.34251 3.38922C7.19442 3.37777 7.05011 3.33678 6.91811 3.26869C6.7861 3.20059 6.66906 3.10675 6.57389 2.99271C6.47872 2.87867 6.40733 2.74673 6.36395 2.60467L5.99298 1.49177ZM18.9769 7.05629C18.9306 6.91763 18.9122 6.77122 18.9225 6.62543C18.9329 6.47964 18.9718 6.33731 19.0372 6.20658C19.1026 6.07585 19.1931 5.95927 19.3035 5.86351C19.4139 5.76775 19.5421 5.69468 19.6808 5.64847L20.7937 5.2775C21.0727 5.18803 21.3758 5.21222 21.6371 5.34482C21.8984 5.47742 22.0968 5.70772 22.1894 5.98575C22.2819 6.26377 22.2611 6.56708 22.1314 6.82984C22.0017 7.0926 21.7736 7.2936 21.4967 7.38923L20.3837 7.7602C20.1038 7.85328 19.7984 7.83142 19.5346 7.69943C19.2708 7.56744 19.0702 7.33612 18.9769 7.05629ZM14.5252 1.90076L14.8962 0.78786C14.9396 0.645801 15.011 0.513863 15.1061 0.399823C15.2013 0.285783 15.3184 0.191948 15.4504 0.12385C15.5824 0.0557522 15.7267 0.0147681 15.8748 0.00331397C16.0229 -0.00814021 16.1718 0.0101671 16.3127 0.057157C16.4536 0.104147 16.5836 0.178868 16.6952 0.276918C16.8068 0.374967 16.8976 0.494359 16.9623 0.628059C17.027 0.761758 17.0643 0.907059 17.072 1.0554C17.0797 1.20373 17.0576 1.35211 17.007 1.49177L16.636 2.60467C16.5927 2.74673 16.5213 2.87867 16.4261 2.99271C16.3309 3.10675 16.2139 3.20059 16.0819 3.26869C15.9499 3.33678 15.8056 3.37777 15.6575 3.38922C15.5094 3.40068 15.3605 3.38237 15.2196 3.33538C15.0787 3.28839 14.9486 3.21367 14.837 3.11562C14.7255 3.01757 14.6346 2.89818 14.5699 2.76448C14.5052 2.63078 14.4679 2.48548 14.4603 2.33714C14.4526 2.1888 14.4747 2.04043 14.5252 1.90076Z" fill="black"/>
</svg>
